<?xml version="1.0" encoding="UTF-8" standalone="no"?><!DOCTYPE svg PUBLIC "-//W3C//DTD SVG 1.1//EN" "http://www.w3.org/Graphics/SVG/1.1/DTD/svg11.dtd"><svg width="100%" height="100%" viewBox="0 0 420 270" version="1.1" xmlns="http://www.w3.org/2000/svg" xmlns:xlink="http://www.w3.org/1999/xlink" xml:space="preserve" xmlns:serif="http://www.serif.com/" style="fill-rule:evenodd;clip-rule:evenodd;stroke-linejoin:round;stroke-miterlimit:1.41421;"><rect id="phone" x="0" y="0" width="420" height="270" style="fill:none;"/><clipPath id="_clip1"><rect x="0" y="0" width="420" height="270"/></clipPath><g clip-path="url(#_clip1)"><g id="sides"><path d="M5.4,123.764c-3.342,-1.927 -5.4,-5.487 -5.4,-9.341c0,-3.854 0.132,-22.281 0.132,-22.281l419.844,61.454c0,0 0.024,21.551 0.024,24.733c0,4.459 -2.382,8.58 -6.249,10.81c-33.833,19.509 -104.332,60.162 -133.937,77.234c-8.387,4.836 -18.72,4.836 -27.106,0c-46.188,-26.634 -197.338,-113.794 -247.308,-142.609Z" style="fill:none;"/><clipPath id="_clip2"><path d="M5.4,123.764c-3.342,-1.927 -5.4,-5.487 -5.4,-9.341c0,-3.854 0.132,-22.281 0.132,-22.281l419.844,61.454c0,0 0.024,21.551 0.024,24.733c0,4.459 -2.382,8.58 -6.249,10.81c-33.833,19.509 -104.332,60.162 -133.937,77.234c-8.387,4.836 -18.72,4.836 -27.106,0c-46.188,-26.634 -197.338,-113.794 -247.308,-142.609Z"/></clipPath><g clip-path="url(#_clip2)"><path id="side" d="M-10.8,82.47l277.061,159.765l0,31.953l-277.061,-159.765l0,-31.953Z" style="fill:#2a3b4d;"/><path id="bottom" d="M432.497,146.376l0,31.953l-166.236,95.859l0,-31.953l166.236,-95.859Z" style="fill:#1f2d3c;"/></g></g><path id="front-face" serif:id="front face" d="M5.4,99.8c-3.342,-1.927 -5.4,-5.488 -5.4,-9.342c0,-3.854 2.058,-7.415 5.4,-9.341c31.377,-18.094 100.194,-57.777 132.559,-76.44c10.815,-6.236 24.14,-6.236 34.955,0c49.423,28.5 189.894,109.502 240.837,138.878c3.867,2.229 6.249,6.35 6.249,10.809c0,4.46 -2.382,8.58 -6.249,10.81c-33.833,19.509 -104.332,60.162 -133.937,77.234c-8.387,4.836 -18.72,4.836 -27.106,0c-46.188,-26.634 -197.338,-113.793 -247.308,-142.608Z" style="fill:#3e556e;"/><path id="screen" d="M16.906,106.435l166.237,-95.86l221.648,127.813l-166.236,95.859l-221.649,-127.812Z" style="fill:#43b883;"/><clipPath id="_clip3"><path d="M16.906,106.435l166.237,-95.86l221.648,127.813l-166.236,95.859l-221.649,-127.812Z"/></clipPath><g clip-path="url(#_clip3)"><path id="NativeScript-Vue-White" serif:id="NativeScript-Vue White" d="M219.347,86.026l-77.35,44.604l54.822,31.613l77.35,-44.604l-54.822,-31.613Z" style="fill:none;"/><g><path d="M186.583,127.847l8.716,1.084l7.058,16.489l-6.875,3.965l-8.899,-21.538Z" style="fill:#fff;"/><path d="M189.968,110.796l17.942,2.505l-4.347,-10.344l9.078,-5.235l10.695,24.474l-42.784,-5.97l9.416,-5.43Z" style="fill:#fff;"/><path d="M168.402,115.615l57.299,7.946l-11.268,-26.872l11.76,-6.781l18.791,44.772l-61.272,-8.5l10.097,24.046l-8.757,5.165l-16.65,-39.776Z" style="fill:#fff;"/></g></g><path id="home-button" serif:id="home button" d="M318.21,200.297l27.706,-15.977l10.389,5.991l-27.706,15.977l-10.389,-5.991Z" style="fill:#1f2d3c;"/><path id="speaker" d="M68.855,56.508l27.706,-15.977l6.927,3.995l-27.706,15.976l-6.927,-3.994Z" style="fill:#1f2d3c;"/><g id="charger"><path d="M335.526,218.27l20.779,-11.982l0,7.988l-20.779,11.983l0,-7.989Z" style="fill:#2a3b4d;"/><path d="M356.305,214.276l-6.926,-3.994l6.926,-3.994l0,7.988Z" style="fill:#1b2735;"/></g><g id="Buttons"><g><path d="M16.04,112.925l13.853,7.988l0,11.983l-13.853,-7.989l0,-11.982Z" style="fill:#405871;"/><path d="M16.04,112.925l0.866,-0.499l13.853,7.988l-0.866,0.499l-13.853,-7.988Z" style="fill:#48627e;"/><path d="M29.893,132.896l0.866,-0.5l0,-11.982l-0.866,0.499l0,11.983Z" style="fill:#1b2735;"/></g><g><path d="M44.612,129.401l23.377,13.48l0,11.982l-23.377,-13.48l0,-11.982Z" style="fill:#405871;"/><path d="M44.612,129.401l0.866,-0.499l23.377,13.48l-0.866,0.499l-23.377,-13.48Z" style="fill:#48627e;"/><path d="M67.989,154.863l0.866,-0.499l0,-11.982l-0.866,0.499l0,11.982Z" style="fill:#1b2735;"/></g><g><path d="M69.721,143.88l23.377,13.48l0,11.982l-23.377,-13.48l0,-11.982Z" style="fill:#405871;"/><path d="M69.721,143.88l0.866,-0.5l23.377,13.481l-0.866,0.499l-23.377,-13.48Z" style="fill:#48627e;"/><path d="M93.098,169.342l0.866,-0.499l0,-11.982l-0.866,0.499l0,11.982Z" style="fill:#1b2735;"/></g></g></g></svg>