<?xml version="1.0" encoding="UTF-8" standalone="no"?><!DOCTYPE svg PUBLIC "-//W3C//DTD SVG 1.1//EN" "http://www.w3.org/Graphics/SVG/1.1/DTD/svg11.dtd"><svg width="100%" height="100%" viewBox="0 0 1200 630" version="1.1" xmlns="http://www.w3.org/2000/svg" xmlns:xlink="http://www.w3.org/1999/xlink" xml:space="preserve" xmlns:serif="http://www.serif.com/" style="fill-rule:evenodd;clip-rule:evenodd;stroke-linejoin:round;stroke-miterlimit:1.41421;"><g id="Layer1"><rect x="0" y="30" width="1200" height="600" style="fill:#34495e;"/><rect x="0" y="0" width="1200" height="30" style="fill:#43b883;"/><g><rect id="NativeScript-Vue-Green-White" serif:id="NativeScript-Vue Green White" x="83.714" y="202.645" width="298.872" height="223.961" style="fill:none;"/><g><path d="M179.177,283.858l13.202,21.645l-41.605,72.826l-26.563,0l54.966,-94.471Z" style="fill:#fff;"/><path d="M242.841,230.377l26.269,45.519l26.258,-45.519l35.077,0l-61.335,108.538l-62.652,-108.538l36.383,0Z" style="fill:#fff;"/><path d="M185.032,203.394l84.078,145.185l68.26,-118.202l45.439,0l-113.699,196.978l-89.897,-155.263l-61.053,105.797l-34.223,0.409l101.095,-174.904Z" style="fill:#42b883;"/></g><g transform="matrix(0.720217,0,0,0.720217,269.297,136.254)"><path d="M773.663,165.835c0.976,0 1.643,0.22 2.001,0.659c0.358,0.439 0.537,1.082 0.537,1.928l0,42.614c0,0.261 -0.065,0.48 -0.195,0.659c-0.13,0.179 -0.35,0.334 -0.659,0.464c-0.309,0.13 -0.724,0.228 -1.245,0.293c-0.52,0.065 -1.155,0.098 -1.903,0.098c-0.814,0 -1.481,-0.033 -2.002,-0.098c-0.52,-0.065 -0.935,-0.163 -1.244,-0.293c-0.31,-0.13 -0.529,-0.285 -0.659,-0.464c-0.131,-0.179 -0.196,-0.398 -0.196,-0.659l0,-38.513l-22.698,0l0,24.504c0,3.026 0.448,5.312 1.342,6.858c0.895,1.546 2.498,2.319 4.809,2.319c0.748,0 1.415,-0.073 2.001,-0.22c0.586,-0.146 1.106,-0.301 1.562,-0.464c0.456,-0.162 0.846,-0.317 1.172,-0.463c0.325,-0.147 0.618,-0.22 0.878,-0.22c0.163,0 0.317,0.041 0.464,0.122c0.146,0.081 0.26,0.236 0.342,0.464c0.081,0.228 0.154,0.537 0.219,0.927c0.065,0.391 0.098,0.879 0.098,1.465c0,0.943 -0.065,1.684 -0.195,2.221c-0.131,0.537 -0.326,0.943 -0.586,1.22c-0.26,0.277 -0.651,0.529 -1.172,0.757c-0.52,0.227 -1.114,0.414 -1.781,0.561c-0.667,0.146 -1.375,0.268 -2.124,0.366c-0.748,0.098 -1.497,0.146 -2.245,0.146c-2.278,0 -4.231,-0.301 -5.858,-0.903c-1.627,-0.602 -2.961,-1.513 -4.002,-2.733c-1.042,-1.22 -1.798,-2.766 -2.27,-4.637c-0.472,-1.872 -0.708,-4.076 -0.708,-6.615l0,-25.675l-6.151,0c-0.488,0 -0.878,-0.261 -1.171,-0.782c-0.293,-0.52 -0.439,-1.366 -0.439,-2.538c0,-0.618 0.04,-1.139 0.122,-1.562c0.081,-0.423 0.187,-0.773 0.317,-1.049c0.13,-0.277 0.301,-0.472 0.512,-0.586c0.212,-0.114 0.448,-0.171 0.708,-0.171l6.102,0l0,-10.446c0,-0.228 0.057,-0.439 0.171,-0.635c0.114,-0.195 0.325,-0.366 0.634,-0.512c0.309,-0.147 0.724,-0.252 1.245,-0.317c0.521,-0.065 1.172,-0.098 1.953,-0.098c0.813,0 1.48,0.033 2.001,0.098c0.521,0.065 0.927,0.17 1.22,0.317c0.293,0.146 0.505,0.317 0.635,0.512c0.13,0.196 0.195,0.407 0.195,0.635l0,10.446l28.263,0Zm3.466,-13.57c0,1.887 -0.358,3.173 -1.074,3.856c-0.716,0.684 -2.034,1.025 -3.954,1.025c-1.887,0 -3.181,-0.333 -3.881,-1c-0.699,-0.668 -1.049,-1.929 -1.049,-3.783c0,-1.888 0.358,-3.173 1.074,-3.857c0.716,-0.683 2.034,-1.025 3.954,-1.025c1.887,0 3.181,0.334 3.88,1.001c0.7,0.667 1.05,1.928 1.05,3.783Z" style="fill:#fff;"/><text x="188.927px" y="212.257px" style="font-family:'Calibri', sans-serif;font-size:99.97px;fill:#fff;">Build truly na<tspan x="783.67px 827.846px 877.587px " y="212.257px 212.257px 212.257px ">ve </tspan>mobile</text><path d="M521.835,287.869c0.976,0 1.643,0.219 2.001,0.659c0.358,0.439 0.537,1.082 0.537,1.928l0,42.614c0,0.26 -0.065,0.48 -0.195,0.659c-0.131,0.179 -0.35,0.333 -0.659,0.464c-0.309,0.13 -0.724,0.227 -1.245,0.292c-0.521,0.066 -1.155,0.098 -1.904,0.098c-0.813,0 -1.48,-0.032 -2.001,-0.098c-0.521,-0.065 -0.936,-0.162 -1.245,-0.292c-0.309,-0.131 -0.529,-0.285 -0.659,-0.464c-0.13,-0.179 -0.195,-0.399 -0.195,-0.659l0,-38.514l-22.698,0l0,24.504c0,3.027 0.447,5.313 1.342,6.859c0.895,1.545 2.498,2.318 4.808,2.318c0.749,0 1.416,-0.073 2.001,-0.219c0.586,-0.147 1.107,-0.301 1.562,-0.464c0.456,-0.163 0.847,-0.317 1.172,-0.464c0.325,-0.146 0.618,-0.219 0.879,-0.219c0.162,0 0.317,0.04 0.463,0.122c0.147,0.081 0.261,0.236 0.342,0.463c0.081,0.228 0.155,0.537 0.22,0.928c0.065,0.39 0.097,0.878 0.097,1.464c0,0.944 -0.065,1.684 -0.195,2.221c-0.13,0.537 -0.325,0.944 -0.586,1.221c-0.26,0.276 -0.65,0.528 -1.171,0.756c-0.521,0.228 -1.115,0.415 -1.782,0.562c-0.667,0.146 -1.375,0.268 -2.123,0.366c-0.749,0.097 -1.497,0.146 -2.246,0.146c-2.278,0 -4.23,-0.301 -5.857,-0.903c-1.627,-0.602 -2.962,-1.513 -4.003,-2.734c-1.041,-1.22 -1.798,-2.766 -2.27,-4.637c-0.472,-1.871 -0.708,-4.076 -0.708,-6.614l0,-25.676l-6.15,0c-0.488,0 -0.879,-0.26 -1.172,-0.781c-0.292,-0.521 -0.439,-1.367 -0.439,-2.538c0,-0.619 0.041,-1.139 0.122,-1.562c0.081,-0.423 0.187,-0.773 0.317,-1.05c0.131,-0.276 0.301,-0.472 0.513,-0.586c0.211,-0.113 0.447,-0.17 0.708,-0.17l6.101,0l0,-10.446c0,-0.228 0.057,-0.44 0.171,-0.635c0.114,-0.195 0.326,-0.366 0.635,-0.513c0.309,-0.146 0.724,-0.252 1.245,-0.317c0.52,-0.065 1.171,-0.097 1.952,-0.097c0.814,0 1.481,0.032 2.001,0.097c0.521,0.065 0.928,0.171 1.221,0.317c0.293,0.147 0.504,0.318 0.634,0.513c0.131,0.195 0.196,0.407 0.196,0.635l0,10.446l28.263,0Zm3.465,-13.57c0,1.887 -0.358,3.172 -1.074,3.856c-0.715,0.683 -2.033,1.025 -3.953,1.025c-1.888,0 -3.181,-0.334 -3.881,-1.001c-0.7,-0.667 -1.05,-1.928 -1.05,-3.783c0,-1.887 0.358,-3.173 1.074,-3.856c0.716,-0.684 2.034,-1.025 3.954,-1.025c1.888,0 3.181,0.333 3.881,1c0.7,0.668 1.049,1.929 1.049,3.784Z" style="fill:#fff;"/><text x="188.927px" y="334.29px" style="font-family:'Calibri', sans-serif;font-size:99.97px;fill:#fff;">applic<tspan x="429.187px 531.841px " y="334.29px 334.29px ">ao</tspan>ns using V<tspan x="989.809px 1042.33px " y="334.29px 334.29px ">ue</tspan>.js.</text></g></g></g></svg>